<?xml version="1.0" encoding="UTF-8" standalone="no"?>
<!-- Created with Inkscape (http://www.inkscape.org/) -->

<svg
   version="1.1"
   id="svg9"
   width="275"
   height="275"
   viewBox="0 0 275 275"
   sodipodi:docname="dude.svg"
   inkscape:version="1.1.1 (3bf5ae0d25, 2021-09-20)"
   xmlns:inkscape="http://www.inkscape.org/namespaces/inkscape"
   xmlns:sodipodi="http://sodipodi.sourceforge.net/DTD/sodipodi-0.dtd"
   xmlns="http://www.w3.org/2000/svg"
   xmlns:svg="http://www.w3.org/2000/svg">
  <defs
     id="defs13" />
  <sodipodi:namedview
     id="namedview11"
     pagecolor="#ffffff"
     bordercolor="#666666"
     borderopacity="1.0"
     inkscape:pageshadow="2"
     inkscape:pageopacity="0.0"
     inkscape:pagecheckerboard="0"
     showgrid="false"
     inkscape:zoom="2.9418182"
     inkscape:cx="125.43263"
     inkscape:cy="137.5"
     inkscape:window-width="1920"
     inkscape:window-height="1017"
     inkscape:window-x="-8"
     inkscape:window-y="-8"
     inkscape:window-maximized="1"
     inkscape:current-layer="g15" />
  <g
     inkscape:groupmode="layer"
     inkscape:label="Image"
     id="g15">
    <path
       style="fill:#000000"
       d="m 146.66321,265.22497 c -7.24719,-0.59657 -13.49308,-1.40556 -13.87975,-1.79776 -0.38668,-0.39219 -2.61032,-0.45166 -4.94144,-0.13214 -2.64585,0.36265 -4.49798,0.16091 -4.92926,-0.53692 -0.37998,-0.61482 -1.75717,-1.11785 -3.06043,-1.11785 -1.30325,0 -3.00645,-0.63689 -3.78487,-1.41532 -0.77842,-0.77842 -3.49795,-1.72762 -6.04338,-2.10933 -2.82561,-0.42373 -5.67967,-1.66862 -7.3282,-3.19642 -1.48507,-1.37632 -4.379345,-3.46462 -6.431715,-4.64066 -5.33718,-3.0583 -8.62967,-5.54892 -13.73281,-10.38827 -2.46492,-2.3375 -5.28184,-4.25 -6.25982,-4.25 -0.97799,0 -3.11515,-1.125 -4.74924,-2.5 -2.158721,-1.81644 -4.144041,-2.5 -7.261001,-2.5 -2.359455,0 -6.119495,-0.83756 -8.355644,-1.86123 -2.236148,-1.02368 -5.970881,-2.38955 -8.299407,-3.03526 -2.328526,-0.64571 -4.706858,-2.05815 -5.285184,-3.13876 -0.578325,-1.08061 -1.710668,-1.96475 -2.516317,-1.96475 -0.805649,0 -1.464816,-0.45 -1.464816,-1 0,-0.55 -1.35,-1 -3,-1 -1.653785,0 -3.886063,-0.88606 -4.974564,-1.97456 -1.08601,-1.08601 -3.11101,-2.2598 -4.5,-2.60841 -1.38899,-0.34862 -2.525436,-1.01395 -2.525436,-1.47852 0,-0.46457 -1.566951,-1.58824 -3.482113,-2.49705 -2.579859,-1.22422 -3.744414,-2.59671 -4.494423,-5.29691 -1.442757,-5.19426 -1.284103,-6.5987 0.976536,-8.64455 1.1,-0.99549 2,-2.43106 2,-3.19017 0,-2.35437 3.139391,-6.30983 5.008021,-6.30983 0.977901,0 2.04482,-0.69532 2.370932,-1.54515 0.326112,-0.84984 2.174257,-2.20588 4.106989,-3.01342 1.932732,-0.80755 3.514058,-1.97512 3.514058,-2.59461 0,-1.75509 3.232006,-3.77992 6.089485,-3.81502 1.773821,-0.0218 2.948283,-0.81928 3.728561,-2.5318 0.626492,-1.375 1.819911,-2.5 2.652041,-2.5 0.832131,0 2.075025,-0.9 2.761986,-2 0.822259,-1.31665 2.332027,-2 4.418705,-2 h 3.169684 l 0.818465,-8.75 c 0.450156,-4.8125 0.675577,-11.06283 0.500936,-13.88962 -0.387893,-6.27856 3.810825,-16.14227 8.092071,-19.01005 3.326712,-2.22839 3.710121,-6.28091 0.768066,-8.11826 -1.1,-0.68696 -2.006549,-2.0327 -2.014553,-2.99054 -0.008,-0.95784 -0.697726,-3.70319 -1.532716,-6.10077 -1.928342,-5.53704 -1.395534,-7.08594 3.472411,-10.094498 2.169143,-1.340604 4.149287,-3.222901 4.400337,-4.182882 0.25104,-0.959981 2.11824,-2.439766 4.14933,-3.288411 2.03109,-0.848645 4.96071,-2.900186 6.51025,-4.558981 1.54955,-1.658795 3.67182,-3.015991 4.71615,-3.015991 1.04433,0 2.44049,-0.541698 3.10256,-1.203774 1.0913,-1.091295 4.39524,-2.209198 14.019335,-4.74351 6.77253,-1.783405 9.87406,-6.642677 10.05892,-15.759608 0.0959,-4.728254 -0.27297,-6.514942 -1.54829,-7.5 -0.92077,-0.711209 -3.81489,-3.487588 -6.43137,-6.16973 -4.03693,-4.138246 -5.15523,-4.776731 -7.385815,-4.216888 -2.16821,0.544188 -3.16891,0.04943 -5.71366,-2.824911 -1.69679,-1.916555 -4.34048,-3.760381 -5.87488,-4.097391 -1.5344,-0.33701 -3.3069,-1.235802 -3.9389,-1.997314 -0.632,-0.761513 -2.65299,-1.880901 -4.49109,-2.487528 -4.95719,-1.636018 -15.122688,-14.800452 -14.064062,-18.213109 0.219448,-0.70743 0.65666,-2.469966 0.971582,-3.9167453 1.224394,-5.6249882 9.59446,-3.547972 9.59446,2.3808473 0,1.937162 0.89656,3.851222 2.5,5.337241 1.375,1.274307 2.5,3.238409 2.5,4.364671 0,1.199796 0.65438,2.047749 1.58029,2.047749 1.55653,0 18.01932,8.376526 19.869705,10.110017 0.5225,0.489491 2.0975,0.890962 3.5,0.892159 1.88847,0.0016 3.32026,1.133601 5.51913,4.363475 1.63302,2.398715 4.22052,4.833646 5.75,5.41096 1.52948,0.577313 2.78087,1.741389 2.78087,2.586835 0,0.845445 0.67044,1.912371 1.48987,2.370944 2.29,1.281553 3.3088,9.01792 2.18119,16.563146 -0.85953,5.751375 -0.76682,6.939164 0.6651,8.52142 0.91511,1.011189 1.66384,2.365592 1.66384,3.009785 0,0.644192 0.65917,1.171259 1.46482,1.171259 1.7277,0 3.53518,3.022856 3.53518,5.91229 0,2.217117 -0.25542,2.210422 19.29246,0.505663 4.56349,-0.39798 7.26004,-0.204307 8.21735,0.590188 0.78531,0.651747 4.5816,1.202316 8.45754,1.22658 3.88236,0.02431 7.03265,0.481767 7.03265,1.02123 0,0.537462 1.125,0.762146 2.5,0.499298 1.375,-0.262848 2.5,-0.149607 2.5,0.251647 0,0.91045 11.33329,4.214317 15.85681,4.622561 5.98213,0.53988 8.04376,4.340575 4.22775,7.794016 -1.79092,1.62077 -2.08006,1.62559 -4.44784,0.0742 -1.39283,-0.91261 -3.84962,-1.521133 -5.45955,-1.352263 -1.60992,0.16887 -3.54589,-0.1861 -4.30215,-0.78884 -2.54465,-2.028057 -8.31443,-3.245095 -18.64656,-3.933174 -5.64935,-0.376273 -10.51341,-1.075436 -10.80902,-1.553745 -0.83305,-1.34791 -6.63844,-0.959414 -9.41944,0.630349 -1.375,0.786021 -4.62364,1.445075 -7.21921,1.464565 -2.76335,0.02075 -6.36394,0.892719 -8.68773,2.103945 -3.08983,1.61051 -4.41058,1.83193 -5.96505,1 -2.93521,-1.570879 -5.7261,-1.314196 -10.12801,0.93149 -2.15618,1.100003 -4.6241,2.000003 -5.48427,2.000003 -0.86017,0 -3.85359,1.575 -6.65205,3.5 -2.798455,1.925 -5.465045,3.5 -5.925755,3.5 -3.33258,0 -16.13789,11.76557 -17.92707,16.47146 -0.52874,1.3907 -1.42249,2.52854 -1.9861,2.52854 -0.56361,0 -1.02475,0.71803 -1.02475,1.59563 0,0.8776 -1.0125,3.00944 -2.25,4.73744 -4.156564,5.80406 -5.648668,26.84629 -2.111814,29.78161 1.601074,1.32878 1.779604,5.23616 0.360401,7.88796 -0.787414,1.4713 -1.74012,1.75128 -4.458207,1.3102 -2.769214,-0.44938 -4.077086,-0.039 -6.575311,2.0631 -1.715185,1.44323 -3.821168,2.62406 -4.679963,2.62406 -0.858794,0 -3.636767,1.82815 -6.173274,4.06256 -6.798374,5.9887 -7.211293,6.28529 -11.330664,8.13855 -2.079642,0.93561 -3.781167,2.12866 -3.781167,2.65122 0,0.52257 -1.575,1.87939 -3.5,3.01517 -1.925,1.13578 -3.5,2.64937 -3.5,3.36354 0,1.31239 8.158835,9.76896 9.42502,9.76896 1.601601,0 10.170882,4.30652 11.218568,5.63792 0.628973,0.79931 2.878973,1.7173 5,2.03998 2.121026,0.32268 4.816743,1.45659 5.990481,2.5198 1.490312,1.34997 3.903568,2.0194 8,2.21918 3.226262,0.15734 6.67284,0.6335 7.65906,1.05814 2.85802,1.23056 3.20999,-0.17459 1.34374,-5.36445 -1.05127,-2.92349 -1.47855,-5.89318 -1.07771,-7.49028 0.38667,-1.5406 0.17075,-3.2408 -0.51677,-4.06921 -0.64951,-0.78262 -1.30391,-3.58928 -1.4542,-6.23701 -0.25897,-4.56236 -0.0384,-5.02985 4.21812,-8.94087 3.53315,-3.24635 4.36583,-4.60695 3.90288,-6.37728 -0.33627,-1.28586 0.0757,-3.26416 0.9611,-4.61547 0.85229,-1.30076 1.30548,-3.0012 1.0071,-3.77877 -0.29838,-0.77757 0.35483,-2.22585 1.45159,-3.2184 1.15013,-1.04086 1.79001,-2.58507 1.51188,-3.64862 -0.60536,-2.31492 2.02827,-10.21517 3.93203,-11.79516 0.78491,-0.65141 1.42711,-2.23676 1.42711,-3.52299 0,-1.28623 0.84758,-3.14363 1.88351,-4.12755 1.03594,-0.98393 2.18644,-3.2048 2.55668,-4.93527 0.92044,-4.30203 3.80454,-6.82827 6.281885,-5.50243 2.42573,1.29822 10.2832,0.31551 12.43699,-1.55545 1.44826,-1.25808 2.05074,-1.23867 4.74137,0.15271 1.76918,0.91487 4.10515,1.3372 5.48323,0.99132 1.3934,-0.34972 3.73474,0.0872 5.57942,1.04107 1.74817,0.90402 4.15914,1.54873 5.3577,1.43269 1.19857,-0.11603 3.07921,0.12312 4.17921,0.53145 1.1,0.40833 3.22254,1.19864 4.71675,1.75623 1.49421,0.5576 2.97161,1.81683 3.28312,2.7983 0.3115,0.98146 1.45146,2.01594 2.53325,2.29883 2.31765,0.60608 2.6132,3.9203 0.50558,5.66947 -1.12903,0.93702 -2.26591,0.94722 -5,0.0449 -1.94628,-0.64233 -3.5387,-1.48064 -3.5387,-1.86292 0,-0.38227 -1.55589,-1.53294 -3.45753,-2.55705 -2.51477,-1.35429 -4.52796,-1.69083 -7.38324,-1.23425 -2.8573,0.4569 -4.26298,0.22137 -5.16492,-0.8654 -2.10519,-2.53661 -22.99431,-1.4037 -22.99431,1.24707 0,1.4732 -3.652845,7.24136 -5.310715,8.38609 -0.49889,0.34447 -1.1389,2.81947 -1.42224,5.5 -0.31088,2.94108 -1.33092,5.76882 -2.57235,7.13106 -1.29247,1.41825 -2.15398,3.90047 -2.31757,6.67749 -0.14321,2.43106 -1.18664,6.33726 -2.31875,8.68045 -1.1321,2.34319 -2.05837,5.07991 -2.05837,6.08161 0,1.0017 -1.38308,3.26854 -3.07352,5.03742 -2.38754,2.49833 -2.93199,3.77964 -2.4394,5.74089 0.34876,1.38862 0.88838,3.87476 1.19915,5.52476 0.31077,1.65 1.00069,3.54694 1.53315,4.21541 0.53245,0.66848 0.67004,2.97965 0.30574,5.13593 -0.56823,3.36331 -0.29731,4.28556 1.90626,6.48913 1.41274,1.41274 2.56862,3.41933 2.56862,4.45909 0,1.03975 0.9,2.70495 2,3.70044 1.1,0.99549 2,2.21172 2,2.70274 0,1.45672 5.15951,5.79695 6.89602,5.801 0.88219,0.002 3.077355,0.90205 4.878145,2 1.80079,1.09794 4.33319,1.99626 5.62755,1.99626 1.29437,0 2.86569,0.61729 3.49184,1.37175 0.62615,0.75447 3.251,1.60987 5.83299,1.9009 2.99999,0.33814 5.27438,1.24523 6.30096,2.51299 0.98104,1.21153 3.33223,2.19823 6.03946,2.53452 2.43817,0.30287 5.89553,0.85581 7.68303,1.22875 2.49108,0.51975 3.25,0.33751 3.25,-0.78042 0,-1.98936 -3.23655,-4.76849 -5.55334,-4.76849 -1.68149,0 -8.44666,-6.39273 -8.44666,-7.98165 0,-1.63737 2.75692,-3.01835 6.02569,-3.01835 2.58431,0 4.30722,0.72547 5.99856,2.52582 6.13482,6.53021 14.79366,6.58174 21.93438,0.13052 4.55588,-4.11596 5.43957,-4.30213 9.88773,-2.0831 4.78244,2.38579 3.71828,7.42676 -1.5678,7.42676 -1.51166,0 -2.72259,0.88043 -3.47144,2.52398 -1.11123,2.43889 -2.50899,3.10148 -7.7969,3.69607 -1.47124,0.16542 -2.63168,1.02412 -2.83663,2.09904 -0.31935,1.67486 0.23484,1.76369 6.98978,1.12044 4.03515,-0.38425 8.09455,-1.09034 9.02089,-1.56909 0.92634,-0.47874 3.29182,-0.87044 5.25661,-0.87044 2.55893,0 4.18563,-0.70532 5.73415,-2.48628 1.18899,-1.36745 3.66598,-2.76847 5.50443,-3.11336 1.83845,-0.3449 3.59246,-1.0313 3.89779,-1.52534 0.30534,-0.49404 2.88786,-2.40521 5.73896,-4.24706 7.09978,-4.58655 11.8319,-8.72026 15.97617,-13.95589 1.83922,-2.32357 2.72616,-2.70552 4.97304,-2.14159 2.4678,0.61938 2.73459,1.1212 2.73459,5.14367 0,5.73252 -1.22631,7.92111 -4.84374,8.6446 -2.01935,0.40387 -3.10618,1.34558 -3.53784,3.06545 -0.34269,1.36538 -1.45373,2.74614 -2.46899,3.06837 -1.01525,0.32223 -2.3489,1.68981 -2.96366,3.03906 -0.6441,1.41364 -2.29749,2.71482 -3.90176,3.07059 -6.15962,1.366 -9.20488,2.63719 -11.92801,4.97913 -1.5708,1.35091 -3.33398,2.45676 -3.91817,2.45743 -0.58419,6.7e-4 -2.92496,0.90122 -5.20169,2.00122 -2.27674,1.1 -4.86841,2 -5.75926,2 -0.89086,0 -2.2403,0.62056 -2.99876,1.37903 -0.75847,0.75846 -3.53883,1.68409 -6.17858,2.05696 -2.63974,0.37286 -5.47454,0.8029 -6.29954,0.95565 -0.825,0.15274 -7.42952,-0.21039 -14.67671,-0.80697 z M 81.171625,107.93352 c 2.56757,-2.03873 5.88043,-4.96373 7.36193,-6.5 1.71748,-1.780983 3.73197,-2.793223 5.55887,-2.793223 1.57588,0 3.73875,-0.660688 4.80637,-1.468197 1.06762,-0.807508 2.658885,-1.482508 3.536135,-1.5 0.87726,-0.01749 2.35721,-0.874016 3.28878,-1.903388 0.93156,-1.029372 4.37631,-2.440861 7.65498,-3.136643 6.26706,-1.329961 6.67563,-1.781922 4.79789,-5.307513 -2.38947,-4.486401 -6.68157,-5.982208 -9.39099,-3.272785 -0.77631,0.776311 -4.68167,2.408469 -8.67857,3.627018 -3.996905,1.21855 -7.971625,2.828042 -8.832715,3.57665 -0.86109,0.748608 -2.89868,1.627718 -4.52798,1.953578 -1.80316,0.360632 -3.5878,1.682237 -4.56068,3.377379 -1.07325,1.870033 -2.72372,2.996033 -5.02409,3.427585 -2.71559,0.509447 -3.67411,1.329446 -4.6237,3.955499 -1.52162,4.20795 -1.52095,6.9478 0.002,8.47082 1.93364,1.93364 3.67715,1.4273 8.6317,-2.50678 z m 34.668295,122.15992 c -1.1,-1.14094 -3.575,-2.69451 -5.5,-3.45238 -5.72832,-2.25522 -11.017465,-5.92444 -11.946155,-8.28737 -5.47996,-13.94303 -7.22448,-31.00648 -3.80459,-37.21339 1.77516,-3.22181 3.20063,-6.23292 5.20744,-11 3.066465,-7.28425 3.970665,-8.45384 7.684385,-9.93977 2.12241,-0.84922 3.85892,-1.99768 3.85892,-2.55213 0,-0.55446 0.92235,-1.0081 2.04966,-1.0081 1.12731,0 3.45673,-0.72762 5.17648,-1.61694 5.28441,-2.73268 22.08912,0.33181 28.45795,5.18955 3.81703,2.9114 6.64559,2.75295 11.40929,-0.6391 1.49345,-1.06343 3.20839,-1.93351 3.81099,-1.93351 0.6026,0 1.09563,-0.64468 1.09563,-1.43261 0,-0.78794 0.88543,-1.71364 1.96762,-2.05711 3.52452,-1.11864 13.02797,-0.91469 14.24843,0.30577 0.65117,0.65117 2.41739,1.18395 3.92493,1.18395 1.50754,0 3.0191,0.45 3.35902,1 0.33992,0.55 1.45695,1 2.48229,1 2.0318,0 8.01771,4.58549 8.01771,6.14195 0,0.53029 1.125,2.61974 2.5,4.64324 1.375,2.02349 2.5,4.29114 2.5,5.03922 0,0.74807 0.89495,2.49788 1.98878,3.88846 1.23714,1.57277 1.77976,3.36116 1.43572,4.73193 -0.33791,1.34634 0.0555,2.70866 1.01121,3.50185 2.09522,1.73887 2.07029,9.88592 -0.0394,12.898 -0.8847,1.26309 -1.39318,3.39113 -1.13411,4.74637 0.2583,1.35119 0.08,2.69753 -0.39626,2.99186 -0.47624,0.29434 -0.86589,1.38123 -0.86589,2.41532 0,1.03409 -1.74097,3.89169 -3.86881,6.35023 -2.12785,2.45853 -4.16143,5.6359 -4.51906,7.06082 -0.45242,1.80259 -1.31751,2.59075 -2.84362,2.59075 -1.20636,0 -3.11028,1.08139 -4.23095,2.40309 -1.87879,2.21585 -2.99522,2.45449 -14.32787,3.0626 l -12.29032,0.65951 -2.80739,-3.00533 c -4.63665,-4.96354 -10.20922,-5.02263 -15.07205,-0.1598 -1.12201,1.12196 -2.84998,2.03993 -3.83998,2.03993 -0.99,0 -2.25362,0.45362 -2.80805,1.00805 -0.55443,0.55443 -5.25693,1.12314 -10.45,1.26379 -8.43611,0.2285 -9.65501,0.0348 -11.44195,-1.8187 z m 24.16925,-8.39131 c 0.79429,-1.13401 2.43114,-2.07144 3.63745,-2.08318 1.40452,-0.0137 3.20562,-1.45221 5.00815,-4 1.54817,-2.18826 3.16843,-3.97865 3.60057,-3.97865 0.43215,0 2.73895,2.4478 5.12624,5.43955 2.38729,2.99176 5.26704,5.67088 6.39944,5.9536 1.13239,0.28273 6.08536,0.28859 11.00658,0.013 8.89365,-0.49798 8.9797,-0.52836 14.25,-5.03092 2.91628,-2.49146 5.30232,-5.18805 5.30232,-5.99243 0,-0.80438 0.9,-3.22666 2,-5.38284 1.1,-2.15618 2,-4.97724 2,-6.26903 0,-1.29179 0.66069,-3.22222 1.4682,-4.28984 1.90836,-2.52309 1.92268,-5.87184 0.0318,-7.44113 -0.825,-0.68469 -1.5,-2.74362 -1.5,-4.57539 0,-3.08435 -1.67351,-8.25791 -3.0486,-9.42461 -0.32412,-0.275 -1.58447,-2.58285 -2.80077,-5.12855 -1.96794,-4.11887 -2.73118,-4.76096 -6.93105,-5.83095 -2.59577,-0.66131 -5.93704,-1.85457 -7.42505,-2.65167 -3.62202,-1.94028 -7.36946,-0.88057 -11.50283,3.25281 -1.83141,1.8314 -4.43013,3.60598 -5.77493,3.94351 -1.34481,0.33752 -2.6914,1.38971 -2.99244,2.3382 -0.86975,2.74034 -6.21993,7.38281 -7.55638,6.55684 -0.65702,-0.40606 -2.06556,-2.70728 -3.13009,-5.11382 -2.27493,-5.14288 -6.28283,-7.53067 -15.33786,-9.13788 -8.90065,-1.57981 -17.02862,-0.41824 -18.96188,2.70983 -0.36088,0.58396 -1.5296,1.06172 -2.59714,1.06172 -1.27746,0 -1.94098,0.68704 -1.94098,2.00979 0,1.10538 -0.9,2.78039 -2,3.72224 -1.1,0.94185 -2,2.68234 -2,3.86777 0,1.18542 -0.675,2.71551 -1.5,3.4002 -0.825,0.68469 -1.5,2.0959 -1.5,3.13601 0,1.04012 -0.54456,2.76311 -1.21013,3.82886 -1.337385,2.1415 0.0374,10.93526 2.89736,18.53358 0.8284,2.20085 2.05535,5.94931 2.72656,8.32991 1.01198,3.58925 1.89195,4.62943 5.15329,6.09152 2.16311,0.96974 4.58187,2.54726 5.37504,3.50559 1.25767,1.51957 2.77492,1.67565 11.86254,1.22031 9.05222,-0.45357 10.61005,-0.79285 11.86459,-2.58395 z M 127.8052,200.68878 c -3.92017,-1.58901 -4.76579,-3.55082 -3.34058,-7.75004 2.36781,-6.97648 6.10645,-9.16983 11.90169,-6.98238 4.17144,1.57455 5.48483,4.6049 3.97655,9.17504 -1.67881,5.08684 -7.42014,7.63171 -12.53766,5.55738 z m 34.46735,-1.02758 c -2.43956,-2.15331 -3.27732,-9.08377 -1.4188,-11.73718 1.85285,-2.64531 8.87651,-4.03459 11.09384,-2.19436 0.84618,0.70227 2.37756,2.92153 3.40307,4.9317 1.81745,3.56248 1.81762,3.73205 0.007,6.70985 -1.57678,2.5928 -2.57681,3.11219 -6.6098,3.43295 -3.27269,0.26028 -5.28833,-0.0955 -6.47502,-1.14296 z m 59.41006,18.28884 c -1.17545,-2.47707 -1.29336,-3.66425 -0.4633,-4.66441 0.6124,-0.7379 1.22756,-4.22247 1.36703,-7.74348 0.20928,-5.28347 -0.22684,-7.3801 -2.49642,-12.00152 -1.5125,-3.07982 -2.75,-6.54687 -2.75,-7.70455 0,-1.15768 -1.125,-3.22987 -2.5,-4.60487 -1.69286,-1.69287 -2.5,-3.60513 -2.5,-5.92301 0,-1.88266 -0.675,-3.98321 -1.5,-4.6679 -0.98561,-0.81798 -1.5,-3.04957 -1.5,-6.50743 0,-4.48205 -0.36356,-5.50077 -2.45135,-6.86873 -1.34824,-0.88341 -3.50986,-2.74775 -4.8036,-4.14299 -1.29375,-1.39525 -5.41516,-3.60707 -9.15871,-4.91517 -6.54425,-2.28674 -7.12721,-2.32643 -15.13305,-1.03045 -4.57963,0.74134 -9.68276,2.0492 -11.34029,2.90633 -3.88079,2.00684 -5.43529,1.96478 -7.39446,-0.20008 -1.45694,-1.6099 -1.44891,-1.93448 0.095,-3.84047 3.29503,-4.06777 13.02926,-7.31737 22.68645,-7.57347 2.2,-0.0583 4.57094,-0.55551 5.26876,-1.10482 0.88766,-0.69875 1.86593,-0.45831 3.25688,0.80048 1.09347,0.98958 3.44753,1.87361 5.23124,1.96453 5.03756,0.25675 12.70308,4.50454 13.44204,7.44881 0.34562,1.37706 1.64933,3.60478 2.89714,4.95048 4.96621,5.35584 11.61888,22.89822 11.45459,30.20454 -0.032,1.42536 0.81794,3.38452 1.88886,4.35369 1.07092,0.96918 2.24007,3.09588 2.59811,4.72601 0.35803,1.63013 1.3212,3.22107 2.14036,3.53541 2.11559,0.81183 3.21901,4.38917 2.19338,7.11104 -0.48034,1.27473 -0.59099,4.08345 -0.24589,6.24159 l 0.62746,3.92389 4.12353,-0.61945 c 2.26795,-0.3407 4.55104,-1.01192 5.07354,-1.4916 0.5225,-0.47968 2.15825,-0.87214 3.63499,-0.87214 1.69797,0 3.23878,-0.8452 4.19148,-2.29919 0.82856,-1.26455 3.46782,-3.1642 5.86501,-4.22144 2.39718,-1.05724 4.71839,-2.49762 5.15822,-3.20083 0.43984,-0.70322 2.12734,-1.96513 3.75,-2.80424 4.07121,-2.10531 3.69804,-3.95179 -1.40279,-6.94107 -2.3942,-1.4031 -5.16395,-3.44707 -6.15499,-4.54216 -0.99104,-1.09509 -2.29465,-1.99301 -2.89691,-1.99537 -0.60225,-0.002 -3.51277,-1.83728 -6.46781,-4.07759 -4.04559,-3.06709 -5.96043,-3.9258 -7.75167,-3.47623 -2.77718,0.69703 -10.15741,-2.7099 -11.08034,-5.11502 -0.3731,-0.97228 0.23436,-2.2177 1.57493,-3.22889 1.25131,-0.94386 2.44192,-3.24598 2.79087,-5.39632 0.33472,-2.06262 0.99792,-3.99085 1.47379,-4.28495 0.47587,-0.2941 0.86522,-1.837 0.86522,-3.42866 0,-1.59167 0.51299,-4.01983 1.13998,-5.39593 1.12453,-2.46807 0.73538,-4.40529 -2.22822,-11.09211 -0.48752,-1.1 -1.52394,-4.475 -2.30315,-7.5 -2.15054,-8.34865 -3.40001,-11 -5.18386,-11 -0.89361,0 -3.26725,-1.67919 -5.27475,-3.73153 -2.0075,-2.05234 -4.54601,-4.20114 -5.64114,-4.77512 -2.69521,-1.4126 -2.96539,-3.70799 -0.75741,-6.43473 2.85191,-3.52196 7.67003,-1.6465 15.37119,5.98325 8.87139,8.78914 12.17107,14.23926 11.40936,18.845 -0.48754,2.94797 -0.14676,4.09466 1.85113,6.22879 4.56298,4.87414 6.169,17.81121 3.03182,24.42233 -2.1195,4.46652 -1.50979,6.73872 2.09477,7.80648 5.10517,1.51229 9.81647,3.73969 14.29041,6.75621 2.36507,1.59462 4.85245,2.89932 5.5275,2.89932 0.67504,0 2.22749,0.70052 3.44986,1.5567 2.04626,1.43326 2.22251,2.35458 2.22251,11.61765 v 10.06094 l -4.0541,4.05411 c -4.36649,4.36648 -8.1643,6.7106 -10.87215,6.7106 -0.9337,0 -2.62964,1.26061 -3.76876,2.80135 -1.22926,1.66266 -3.8462,3.33572 -6.43806,4.11598 -2.40181,0.72304 -5.49193,1.68447 -6.86693,2.1365 -1.375,0.45203 -6.23062,0.76716 -10.79027,0.70028 l -8.29028,-0.12159 -1.57676,-3.32278 z M 32.339926,132.11549 c -1.549476,-0.90114 -3.843864,-1.2483 -6.034533,-0.91307 -2.854805,0.43685 -4.104822,0.0356 -6.5,-2.08636 -1.631007,-1.44497 -4.000967,-3.33497 -5.266579,-4.19999 -1.265612,-0.86502 -2.937402,-2.80322 -3.715089,-4.3071 -0.777688,-1.50388 -2.4421871,-2.99243 -3.6988881,-3.30788 -1.630163,-0.40919 -2.786379,-1.98563 -4.034911,-5.50138 -2.71824599,-7.65433 -2.19030399,-33.059163 0.747886,-35.988637 0.370025,-0.368927 3.446874,-0.705062 6.8374431,-0.746967 3.390569,-0.0419 8.414671,-0.615211 11.164671,-1.274014 2.75,-0.658802 6.633462,-1.464019 8.629916,-1.789371 3.397673,-0.553702 3.66777,-0.867732 4.221587,-4.908267 0.32542,-2.374195 0.09781,-5.733422 -0.505807,-7.464949 -0.788659,-2.262348 -0.793248,-3.758704 -0.01631,-5.317719 0.594644,-1.193219 1.299544,-4.644489 1.566445,-7.669489 0.820845,-9.303292 1.697756,-12.601131 4.091429,-15.386821 1.266456,-1.473867 2.617832,-4.127278 3.003057,-5.896469 0.435814,-2.00152 2.358593,-4.677122 5.08976,-7.082546 4.12009,-3.62869 4.666336,-3.824299 8.904636,-3.188727 3.929692,0.589294 4.515286,0.99237 4.515286,3.107966 0,1.829121 -0.928279,2.866968 -3.75,4.192628 -2.502912,1.175883 -3.860413,2.540348 -4.082011,4.102955 -0.182606,1.287652 -1.645106,4.568199 -3.25,7.290105 -1.604894,2.721907 -2.917989,5.577561 -2.917989,6.345898 0,0.768337 -0.397992,1.64295 -0.884427,1.943583 -1.602964,0.990686 -3.505138,13.581863 -2.242577,14.844424 0.619852,0.619852 1.127004,3.070946 1.127004,5.446876 0,2.885128 0.830316,5.635177 2.5,8.280128 1.375,2.178141 2.5,5.094199 2.5,6.480128 0,1.764453 0.542271,2.519872 1.80887,2.519872 0.994879,0 2.625027,0.596788 3.622551,1.326196 3.621517,2.648117 -1.209994,8.969331 -5.181421,6.779013 -0.9625,-0.530837 -3.55,-2.781867 -5.75,-5.002289 -2.2,-2.220422 -4.606992,-4.051934 -5.348871,-4.070026 -1.339968,-0.03268 -6.822054,2.140724 -10.651129,4.222694 -1.1,0.5981 -3.575,1.235296 -5.5,1.415993 -15.5558471,1.4602 -15.2351721,1.378324 -14.3984041,3.676247 0.431031,1.183695 0.818218,5.152058 0.860416,8.818586 0.05566,4.836129 0.5518751,7.191449 1.8073561,8.578739 0.951848,1.05178 1.730632,2.63236 1.730632,3.51239 0,1.41721 2.858196,4.67167 9.590585,10.92024 1.46799,1.36249 2.848118,1.75022 4.634274,1.30192 1.659453,-0.4165 3.960549,0.0844 6.619577,1.44094 4.758312,2.42751 9.841616,2.6552 14.628209,0.65524 2.976758,-1.24377 3.56437,-1.23621 4.639912,0.0597 1.938697,2.33599 -0.120253,6.60049 -4.135927,8.56635 -4.287797,2.09907 -13.580001,2.24862 -16.97663,0.27322 z"
       id="path193" />
  </g>
</svg>
