<?xml version="1.0" encoding="UTF-8" standalone="no"?>
<!-- Created with Inkscape (http://www.inkscape.org/) -->

<svg
   width="390mm"
   height="685mm"
   viewBox="0 0 390 685"
   version="1.1"
   id="svg5"
   inkscape:version="1.1.1 (3bf5ae0d25, 2021-09-20)"
   sodipodi:docname="sia_simple.svg"
   xmlns:inkscape="http://www.inkscape.org/namespaces/inkscape"
   xmlns:sodipodi="http://sodipodi.sourceforge.net/DTD/sodipodi-0.dtd"
   xmlns="http://www.w3.org/2000/svg"
   xmlns:svg="http://www.w3.org/2000/svg">
  <sodipodi:namedview
     id="namedview7"
     pagecolor="#ffffff"
     bordercolor="#666666"
     borderopacity="1.0"
     inkscape:pageshadow="2"
     inkscape:pageopacity="0.0"
     inkscape:pagecheckerboard="0"
     inkscape:document-units="mm"
     showgrid="false"
     units="mm"
     inkscape:zoom="0.26205013"
     inkscape:cx="-181.26303"
     inkscape:cy="1543.5978"
     inkscape:window-width="1920"
     inkscape:window-height="1017"
     inkscape:window-x="-8"
     inkscape:window-y="-8"
     inkscape:window-maximized="1"
     inkscape:current-layer="layer1" />
  <defs
     id="defs2" />
  <g
     inkscape:label="Layer 1"
     inkscape:groupmode="layer"
     id="layer1">
    <path
       style="fill:#000000;stroke-width:0.352778"
       d="m 200.11586,680.11308 c -30.49082,6.7017 -27.94209,-37.46569 -17.46265,-54.71045 8.24676,-25.89245 47.771,-12.38684 50.31361,-39.14554 8.62907,-24.84634 -0.45475,-44.95509 -18.89916,-62.39298 -16.76971,-16.41626 -33.3108,-33.39012 -44.86298,-54.18055 -14.83573,-13.39583 -3.3902,34.60123 -22.75424,39.93657 -21.49542,19.62425 -60.673397,13.8571 -74.303412,-12.61898 C 57.361635,472.48941 57.244559,442.81017 52.501909,415.36337 63.246051,392.45249 57.745174,367.4474 34.038965,356.1141 29.485889,339.00598 35.368586,314.18589 9.9301659,313.25586 -10.794622,289.29128 58.094996,284.82769 24.739762,260.87394 4.365501,243.77239 8.7980642,213.29945 21.002378,192.74557 29.228531,164.80817 61.330117,150.66802 73.669193,130.97298 83.895725,110.32594 58.346529,88.915278 70.39218,65.46002 80.3714,35.934244 108.25204,17.12419 137.61876,10.346292 c 24.0884,-7.0474259 49.87714,-5.0120049 74.53046,-3.165218 16.98156,13.579701 38.78958,4.217062 58.76501,9.528455 43.85519,7.379969 76.96291,45.212754 90.30415,86.137941 9.76058,36.19882 -20.33124,68.86488 -15.58008,104.75363 7.47254,24.0787 35.78491,36.86294 37.15882,64.47879 7.40677,41.68667 -28.73824,71.63311 -40.07404,108.69764 -0.78749,28.8139 -23.97961,8.86743 -35.00844,7.90827 -5.40145,24.43516 -7.86128,46.04227 3.76257,68.79179 1.9419,23.02577 -0.0773,46.11692 3.71366,68.78956 10.3074,31.21753 27.93627,59.5795 43.50367,88.29841 -0.41332,34.44807 -45.34877,39.84932 -70.26118,51.07488 -29.15881,5.44567 -58.6155,15.3961 -88.3175,14.47264 z m 3.27696,-9.00511 c 33.20735,-2.07508 65.97948,-10.21073 97.7809,-19.67808 16.79103,-11.06888 -0.69846,-43.95532 5.46353,-64.36033 -0.46623,-40.32063 -1.98696,-80.64164 -3.57308,-120.94451 -16.5146,17.3608 -52.15056,21.62144 -50.91114,51.33504 0.13499,25.99689 -8.37476,50.56412 -12.62728,75.90253 3.79929,23.14306 39.54835,18.16679 53.40942,36.39911 -2.7083,15.88815 -20.3048,-9.24595 -24.98355,4.92242 -1.49427,-12.57855 -25.77384,-20.97343 -8.8706,-5.19328 7.89493,22.05865 -20.48566,-4.41413 -21.39601,-14.30571 -21.7708,-12.37306 -51.19022,10.01427 -52.56619,33.37925 -2.08272,13.87008 1.9093,26.77881 18.274,22.54356 z m 116.24029,-27.75433 c 29.76272,-4.05968 35.64144,-32.65363 16.104,-52.6675 -6.39828,-9.6455 -21.09381,-42.17614 -20.59448,-37.40131 0.2641,27.75004 0.6002,55.53513 0.87426,83.20376 l 1.29595,3.97322 z M 241.60114,533.14741 c 12.76274,-24.10458 -4.79902,-43.15405 -23.58398,-20.68289 3.01921,5.46638 25.82623,41.39529 23.58398,20.68289 z M 113.70356,511.3983 c 23.00673,2.18619 39.84242,-18.83552 39.65521,-40.52197 3.75912,-16.14208 -6.56526,-52.98772 -19.74897,-51.92094 -2.54607,16.07503 11.41321,48.33612 -2.89213,53.85041 -7.79435,-26.34298 -40.707631,-2.20564 -59.253288,-12.49148 -6.106923,19.61439 15.880045,49.55709 38.006718,51.38325 z m 94.80454,-9.81209 c 28.49072,-6.3251 56.34576,-18.81263 79.6286,-36.34846 28.34348,-23.77667 -15.85166,-46.51586 -29.17236,-64.83232 -11.54661,14.61895 -44.69054,21.59873 -46.53904,-7.63131 3.1187,-10.64402 16.267,-32.47354 -7.4043,-26.82525 -19.48417,8.83 -65.62173,19.60975 -58.66045,38.03317 24.51465,-27.98837 64.26906,29.46981 23.07799,37.61629 -5.52783,17.03535 22.78713,43.98901 35.83273,60.49083 1.07885,-0.16773 2.15802,-0.33519 3.23683,-0.50295 z m 31.57361,-29.33432 c -21.93366,-16.42658 19.22196,-9.77649 0,0 z m -17.45525,-24.3163 c -20.99332,-16.23758 18.88335,-8.45379 0,0 z m -14.00448,-21.95936 c -24.70767,-26.73075 19.48195,-7.95243 0,0 z m -21.60425,-30.59621 c -6.97769,-26.1786 17.37656,9.91586 0,0 z m -83.46416,57.03761 c 31.76926,9.36413 30.56883,-43.69841 -0.98691,-35.15231 -16.383484,-5.04222 -60.066459,-3.1638 -20.189376,1.62004 33.897436,-0.2772 4.636568,41.33654 -9.931111,30.97975 10.212332,1.54327 20.808068,3.78685 31.107397,2.55252 z M 82.742811,439.13586 c 18.638949,-14.58986 -38.552749,-18.92208 -14.334224,-0.0533 4.757408,0.93424 9.549617,-0.88505 14.334224,0.0533 z m 78.717059,-3.37365 c 19.08243,-2.84509 18.36024,-26.53476 0.47714,-9.31357 -5.36045,1.64731 -8.48231,9.16874 -0.47714,9.31357 z m -9.43399,-13.64428 c 18.65505,-1.78315 17.08698,-27.13744 -0.26379,-10.42241 -5.31437,2.12866 -5.19232,8.92916 0.26379,10.42241 z m 141.82121,-2.52935 c 4.03315,-23.21349 10.77003,-50.34121 -8.33436,-69.18561 -20.40792,-23.97136 -24.03059,17.38029 -27.68274,31.29371 7.38213,14.74818 23.17057,29.01003 36.0171,37.8919 z m -169.75493,-8.74194 c 10.10214,-5.92801 31.98486,-41.56334 6.89234,-25.01154 -23.4785,22.69407 8.36657,-26.9642 -4.83601,-38.02433 -22.28001,-20.49295 -61.453375,5.29734 -61.317789,33.12867 -5.75747,34.25229 38.858819,24.06963 59.261459,29.9072 z m -8.70276,-46.81661 c -12.04947,-25.25767 22.71114,-7.28688 0,0 z M 91.486641,363.1943 c -8.632308,-24.58843 28.140219,-11.22062 0,0 z m 139.545409,41.77214 c 37.28374,-8.91079 -15.12056,-15.96767 -2.48094,-0.19824 z m -7.03932,-15.59324 c 20.22926,2.35693 17.79939,-18.21481 -0.35157,-5.22126 -4.16798,0.406 -3.00769,6.18686 0.35157,5.22126 z m 107.74577,-4.44475 c 8.87621,-31.191 31.29804,-56.40066 41.3314,-86.86188 9.77858,-32.32355 -15.94615,-57.33463 -34.36181,-79.64255 -14.23852,-39.21511 24.42809,-76.04546 13.22819,-115.43692 -14.91477,-41.832919 -53.27601,-79.861835 -100.19976,-78.331964 -36.78259,-2.325354 -75.18069,8.354638 -102.87305,33.160139 -12.08346,8.014004 -19.25928,35.777058 0.26646,18.023442 20.75756,12.127964 46.1237,8.018549 61.98214,29.190403 33.36921,11.57819 67.76764,39.45878 70.60384,76.96287 3.80742,20.54222 -15.63735,37.78276 -15.72373,54.94341 20.12538,6.38088 59.7526,-3.8426 65.2115,20.65711 -13.74453,20.10799 -37.27692,29.82609 -58.53792,40.10074 -5.99325,25.86109 18.56581,42.20397 29.88419,61.84374 5.05743,9.2815 19.51353,31.62072 29.18855,25.39146 z M 155.67693,373.76342 c 27.63126,-1.4284 -28.40781,-44.27211 -18.26817,-8.30806 3.16615,8.1079 12.57246,3.57466 18.26817,8.30806 z m 93.2225,-0.92527 c 16.75392,-20.07347 11.04072,-48.94129 -6.03964,-66.67886 -16.69372,-25.09916 -0.21595,-53.23798 12.70131,-75.66011 14.79084,-23.22318 26.62518,-56.4271 4.70155,-79.33136 -20.6185,-28.16658 -55.17533,-43.10379 -89.66675,-42.51977 -27.64035,1.85649 -57.30052,6.84548 -80.610626,22.72129 -11.702263,13.58169 4.702158,31.45919 7.272673,44.08075 21.405583,-14.67661 50.710463,-10.5499 72.976153,1.16996 25.90096,15.54724 38.56694,46.80395 32.84369,76.19045 -3.4891,31.31967 -17.72193,68.24455 4.38962,95.86643 10.9731,10.96894 28.02538,20.27392 41.43202,24.16122 z M 188.5425,362.5115 c 23.91655,3.40493 2.06573,-31.25779 -1.09077,-5.80268 -3.32799,-0.94906 -2.69347,10.11298 1.09077,5.80268 z m -13.13868,0.46732 c 9.99452,-9.05769 10.06135,-30.28683 -6.10649,-16.36625 -20.18531,-0.9635 -1.54439,14.86593 6.10649,16.36625 z M 61.744421,357.66539 c 8.418946,-13.2157 33.933501,-25.36046 10.445844,-38.27604 -6.957042,-22.29657 0.03426,-52.49208 -25.365889,-65.15849 -14.723614,-9.29219 6.681474,-26.33045 8.161676,-40.2795 17.446893,-12.35773 38.46356,-33.83394 27.615153,-57.34707 -25.100298,-16.543 -45.008882,25.75739 -55.790522,44.81929 -19.6250144,27.25345 1.978321,53.36078 20.129033,73.55127 14.763942,24.52213 -15.450672,49.52894 -4.940484,75.03241 3.344867,3.63827 17.700378,21.00654 19.745189,7.65813 z m 85.380339,-16.3926 c 26.92832,1.31175 45.71764,-16.32303 40.07217,-43.68417 4.576,-17.72042 3.37175,-30.5024 -13.82251,-13.85473 -23.67121,8.48984 -46.76101,-3.98239 -64.51178,18.96886 -14.289901,2.8757 -42.94377,-18.72611 -28.952668,10.45537 13.138128,23.52746 44.165028,13.62215 62.716388,28.81399 z m -18.87361,-10.41851 c -25.16844,-10.52493 17.24969,-13.7899 0,0 z m 141.28751,-4.79052 c -3.05524,-14.24639 -15.38072,-5.47387 0,0 z M 35.37441,312.94722 c 8.849029,-11.56472 6.587327,-37.81795 -9.387235,-17.41248 -21.9162175,8.61511 -1.646676,14.85656 9.387235,17.41248 z m 224.75358,-5.42396 c 0.35352,-16.36355 -25.95238,-25.61042 -7.94333,-4.73205 1.16689,2.82402 4.33921,8.08715 7.94333,4.73205 z M 100.31285,292.66443 c 22.49363,3.0164 23.2953,-35.69135 44.63063,-14.04098 26.40706,5.93028 53.53916,-18.97728 39.89007,-45.45475 -3.28474,-29.11916 -52.31746,-32.78599 -59.25531,-4.26189 -2.72237,11.76535 -2.98404,29.6839 -12.85125,10.27238 -11.95601,-24.97045 -47.016479,-12.36872 -44.548782,13.70381 -0.201609,16.93185 14.930678,38.02451 32.134642,39.78143 z m 14.72354,-15.28983 c -21.290191,-8.40781 5.24964,-38.82151 7.39393,-10.65753 0.16454,4.04932 -1.43261,12.86775 -7.39393,10.65753 z m 47.47515,-13.81269 c -23.29942,-8.89128 11.27963,-37.88385 9.14449,-9.09284 0.084,4.69017 -4.0657,9.91896 -9.14449,9.09284 z m 103.40021,26.48442 c 17.24183,-8.2578 52.7035,-21.88582 52.32657,-36.62931 -21.81304,-0.64267 -50.86111,-13.26348 -67.85986,3.30242 -10.04713,13.6027 4.54864,32.80354 15.53329,33.32689 z M 59.988641,247.75575 c -0.172712,-23.46041 32.39741,-45.69492 49.971459,-24.61519 14.4859,1.58266 23.10818,-31.03911 46.04829,-23.64666 12.19648,4.67673 35.02159,8.48575 17.28164,-10.36184 -22.98663,-14.91261 -58.47279,-21.1918 -79.141304,1.33845 -11.891282,15.78107 -52.40265,35.6484 -34.160085,57.28524 z M 193.96653,223.98664 c -3.96395,-21.03074 -10.19059,-9.57544 -1.15747,3.67185 1.80901,4.50024 2.44247,-4.74401 1.15747,-3.67185 z M 93.774131,118.6968 c 20.623429,-14.35918 47.387229,-14.94806 71.388989,-20.151057 11.12612,-0.205851 37.12321,4.779587 12.03973,-2.934227 -17.99193,0.19054 -25.47587,-14.911219 -43.31969,-1.000171 -11.52583,-10.999437 -15.84886,7.181465 -27.74308,7.945035 -0.056,9.21956 -29.899885,6.743 -12.365949,16.14042 z m -6.79798,-15.54424 C 99.68743,85.831887 121.13583,90.510555 130.04867,68.082245 145.8598,38.908299 179.43076,26.135177 209.61363,17.645569 175.78681,11.110528 137.66746,15.02022 107.38323,32.927024 86.921634,46.395935 67.127021,74.311783 80.567359,98.810175 c 1.84281,0.915761 3.519677,7.144055 6.408792,4.342385 z"
       id="path273" />
  </g>
</svg>
