<?xml version="1.0" encoding="UTF-8" standalone="no"?>
<!-- Created with Inkscape (http://www.inkscape.org/) -->

<svg
   width="390mm"
   height="685mm"
   viewBox="0 0 390 685"
   version="1.1"
   id="svg5"
   inkscape:version="1.1.1 (3bf5ae0d25, 2021-09-20)"
   sodipodi:docname="sia_simple.svg"
   xmlns:inkscape="http://www.inkscape.org/namespaces/inkscape"
   xmlns:sodipodi="http://sodipodi.sourceforge.net/DTD/sodipodi-0.dtd"
   xmlns="http://www.w3.org/2000/svg"
   xmlns:svg="http://www.w3.org/2000/svg">
  <sodipodi:namedview
     id="namedview7"
     pagecolor="#ffffff"
     bordercolor="#666666"
     borderopacity="1.0"
     inkscape:pageshadow="2"
     inkscape:pageopacity="0.0"
     inkscape:pagecheckerboard="0"
     inkscape:document-units="mm"
     showgrid="false"
     units="mm"
     inkscape:zoom="0.26205013"
     inkscape:cx="-181.26303"
     inkscape:cy="1543.5978"
     inkscape:window-width="1920"
     inkscape:window-height="1017"
     inkscape:window-x="-8"
     inkscape:window-y="-8"
     inkscape:window-maximized="1"
     inkscape:current-layer="layer1" />
  <defs
     id="defs2" />
  <g
     inkscape:label="Layer 1"
     inkscape:groupmode="layer"
     id="layer1">
    <path
       style="fill:#000000;stroke-width:0.352778"
       d="m 200.11586,680.11308 c -23.45386,6.73555 -26.97004,-18.39007 -23.1232,-36.46778 1.30669,-21.41761 19.16048,-37.28705 40.05247,-40.69742 21.88118,2.36849 13.59931,-31.32108 20.93203,-46.66853 -7.21556,-13.13066 -19.64632,-27.23899 -29.82184,-39.47813 -13.59599,-10.80939 -24.31563,-23.72915 -33.17285,-38.55085 -8.13556,-12.10435 -15.17887,-24.47655 -13.50836,-1.1697 -0.92474,18.17898 -12.20075,34.77254 -29.02306,41.45139 -13.03662,2.58311 -28.25144,4.73047 -40.666869,-2.15466 -22.07967,-12.98603 -30.95513,-39.17266 -33.6057,-63.35081 -1.723895,-17.9557 -11.624019,-44.31232 -0.4662,-55.1142 1.41398,-18.72012 -0.0801,-28.68989 -18.637583,-35.82876 -18.090718,-14.3432 4.939559,-42.95587 -22.690663,-45.87587 -21.4070613,-6.56548 -7.8284607,-24.59728 6.854716,-29.70643 19.701453,-6.90376 8.830639,-19.31452 -2.750195,-29.55397 -12.6681543,-15.58657 -12.8555603,-38.23907 -3.234528,-55.20973 8.914657,-24.3636 26.70561,-45.82288 47.882973,-60.20399 16.9481,-0.0418 1.39198,-19.79802 13.2373,-24.96582 -8.23023,-16.06052 -16.68491,-36.515048 -6.24062,-54.508791 5.98306,-17.666651 21.189,-32.039535 36.831149,-41.296402 21.56634,-8.298691 43.59828,-17.8079839 67.06012,-14.5459869 15.81571,0.394229 37.80724,-4.520791 49.80985,8.8882929 17.40775,0.562301 34.95425,-2.794741 51.2444,3.558518 14.87891,0.86119 27.59464,11.338631 40.70862,19.058764 12.3652,10.365556 21.72941,23.579674 30.94944,37.321742 10.48475,17.464685 18.62369,37.373663 12.52362,57.913073 -2.92705,16.96235 -9.8497,31.52613 -13.40764,48.1431 -6.44736,16.71074 -3.55359,37.68267 12.28335,48.8275 16.70655,17.25769 26.97244,40.06754 22.59927,64.38429 -2.02911,17.6426 -13.07523,33.73401 -21.84679,48.72499 -9.36382,16.00633 -17.38013,33.16543 -22.55873,50.95838 -10.21519,17.56582 -33.67822,-25.95576 -30.64146,2.12291 -0.6327,15.20488 -13.33939,31.36738 -1.94504,43.27758 10.72067,17.9717 3.63381,40.9671 8.22378,61.17282 -3.50706,18.06609 3.2365,33.83342 10.5977,49.88989 9.90414,19.55707 20.12397,39.25651 30.56692,58.36596 13.77178,14.99368 -8.5216,33.13564 -21.6009,39.52988 -15.68197,4.77212 -29.01177,13.70298 -45.09798,17.28611 -27.71214,5.48234 -56.24159,14.07298 -85.42204,14.90486 l -1.3244,0.22158 -1.57114,-0.65377 z m 3.27696,-9.00511 c 19.12598,0.22854 36.91279,-5.60549 55.36167,-8.25024 16.84423,-5.17139 36.25495,-6.7838 51.29407,-15.78294 -6.31943,-22.20979 -1.9758,-45.7296 -3.85842,-68.61231 0.34328,-37.35107 -1.97375,-74.77949 -3.12597,-112.33743 -4.02262,-2.31093 -21.08844,18.83154 -31.87329,22.59811 -26.77149,5.01738 -15.25403,39.97194 -22.78911,59.08946 0.72226,17.9718 -15.52603,44.52094 -5.75418,57.45882 17.68781,5.89305 36.04083,12.48112 50.28758,24.49029 -2.29311,16.63105 -20.16398,-9.73201 -24.98355,4.92242 -4.54539,-14.29622 -27.03153,-23.22919 -8.8706,-5.19328 12.01418,19.91117 -16.17527,4.56329 -17.25682,-8.83327 -8.88399,-18.1661 -36.4742,-6.54623 -47.3624,5.99694 -10.33537,10.6191 -12.77123,33.27502 -5.42405,43.59658 4.68421,1.02554 9.59888,1.2837 14.35507,0.85685 z m 116.24029,-27.75433 c 13.41351,-2.64643 41.00977,-19.99937 24.93639,-33.86787 -8.09496,-20.71941 -21.57714,-38.7671 -29.47186,-59.31747 0.25566,16.32705 0.24628,37.53003 0.6237,55.70683 1.95862,10.87489 -3.86409,31.46176 3.91177,37.47851 z M 241.60114,533.14741 c 2.36834,-16.60974 12.01107,-42.45634 -11.74201,-27.17219 -28.74477,1.97151 2.89604,22.44586 10.22258,35.87253 0.38562,-2.92004 0.62512,-5.86421 1.51943,-8.70034 z M 113.70356,511.3983 c 17.16798,0.9909 35.70101,-10.71595 37.12924,-28.78784 6.30107,-20.41752 2.97468,-43.77773 -10.43244,-60.8131 -12.28818,-20.89449 -4.32454,18.78286 -4.74489,26.3143 3.60574,9.13567 0.1311,41.75787 -7.64766,18.40566 -3.11621,-15.77784 -34.817899,2.69761 -50.203829,-6.01346 -22.371657,-5.483 1.6698,31.94132 7.69322,38.19093 6.40711,8.49937 16.770799,14.43288 28.206359,12.70351 z m 94.80454,-9.81209 c 19.56768,-2.98 37.41791,-12.58963 55.55344,-20.77283 13.25464,-6.34074 27.42464,-15.43824 34.93248,-29.16096 0.48433,-15.52064 -18.56836,-28.0974 -28.97343,-39.83969 -9.87849,-9.71089 -12.70372,-19.12243 -20.7034,-4.75845 -16.42038,16.78 -38.19196,2.45178 -36.91576,-18.04491 3.4584,-12.15602 17.16272,-19.3738 -2.03466,-24.45229 -14.57009,3.04841 -26.44889,11.83972 -39.80236,15.84472 -14.42091,-4.6364 -30.62124,23.88671 -26.62886,26.28223 12.57605,-15.5033 31.21006,-13.50568 39.49818,5.11602 15.84395,15.85298 -6.78611,26.16535 -18.95248,32.29592 9.91298,19.61438 24.12764,39.31847 38.6351,56.72572 l 2.15492,1.26747 3.23683,-0.50293 z m 31.57361,-29.33432 c -21.77989,-19.87869 20.6832,-8.50025 0,0 z m -17.45525,-24.3163 c -20.75638,-19.43681 20.28715,-7.16666 0,0 z m -14.00448,-21.95936 c -22.31525,-28.02661 19.49447,-5.71907 0,0 z m -21.60425,-30.59621 c -5.77538,-24.30163 16.6647,9.22542 0,0 z m -83.46416,57.03761 c 23.1285,4.8255 26.55559,-10.84479 21.46921,-30.30843 -18.98985,-5.7499 -41.215909,-6.91823 -61.506369,-9.34739 -4.48187,9.70756 26.59728,1.60531 34.21945,11.70833 4.208809,14.77114 -8.3512,29.31868 -24.72252,24.55001 -12.2442,0.007 29.306049,5.61008 30.540229,3.39748 z M 82.742811,439.13586 c 20.191979,-8.87726 -28.63528,-21.82974 -18.87361,-5.94868 0.63519,10.05888 12.38267,4.40409 18.87361,5.94868 z m 78.717059,-3.37365 c 14.91382,-3.10282 24.98554,-25.18541 4.50241,-12.14828 -3.76448,3.06765 -16.83041,9.60515 -4.50241,12.14828 z m -9.43399,-13.64428 c 14.74782,-1.95764 22.65508,-25.13766 4.50483,-13.2352 -6.60669,3.26194 -13.5896,8.74565 -4.50483,13.2352 z m 141.82121,-2.52935 c 1.76036,-19.80855 11.21502,-41.72664 -2.08476,-59.80652 -9.72843,-18.68877 -28.75933,-28.44467 -26.18136,-0.26148 -13.76421,17.28868 -9.26292,28.09198 7.07354,41.26685 6.30595,3.55573 16.4841,21.40916 21.19258,18.80115 z m -169.75493,-8.74194 c 6.56973,-5.16587 34.12596,-39.33865 11.42123,-27.78657 -5.34152,-1.62863 -14.52716,24.15962 -14.88337,4.13854 8.26699,-14.93097 17.27629,-41.77293 -6.95113,-46.61385 -25.406149,-2.65355 -51.159459,18.77107 -48.712969,45.2568 -2.59483,18.844 15.74626,20.72543 31.75744,21.57861 9.012579,-0.39064 18.862589,4.42948 27.368799,3.42647 z m -8.70276,-46.81661 c -11.30103,-26.08096 22.55571,-7.08304 0,0 z M 91.486641,363.1943 c -5.97095,-21.37979 21.685309,-16.71007 4.19122,0.78296 -1.29393,-0.13687 -3.4093,1.05883 -4.19122,-0.78296 z m 139.545409,41.77214 c 17.96067,-1.26042 20.17599,-19.3392 -0.65173,-7.26072 -9.26434,-0.78663 -6.56836,7.76925 0.65173,7.26072 z m -7.03932,-15.59324 c 12.76981,0.69743 24.62023,-10.46326 9.10371,-9.11376 -4.01734,-0.9805 -18.16217,8.32259 -9.10371,9.11376 z m 107.74577,-4.44475 c 6.46537,-22.09271 19.70672,-41.27297 29.52239,-61.49844 15.18541,-19.82028 18.49426,-49.12203 4.91752,-70.18685 -5.68518,-12.04987 -17.9827,-20.57822 -25.69429,-31.37736 -10.5992,-18.12683 -2.73519,-40.07811 2.94415,-58.39779 5.69606,-20.8709 16.75548,-43.57043 6.89853,-64.409058 -6.1372,-17.9557 -18.7052,-33.172649 -31.22084,-47.31489 -14.34215,-13.14605 -31.20434,-22.277091 -50.61903,-26.045115 -22.39869,-2.016748 -44.5528,-1.726149 -66.28663,3.183663 -13.56915,6.23942 -28.81208,10.221314 -41.31673,19.244973 -10.39241,5.453211 -33.46054,30.742249 -22.13736,35.366819 15.94108,-22.206821 21.5497,12.16045 40.20151,0.17625 11.35236,4.34039 22.64933,10.12323 27.47951,20.098138 25.21753,6.05181 46.77234,22.97726 62.50152,43.35416 12.4819,16.32309 16.54206,37.75157 9.12005,57.24183 1.50473,10.20429 -26.46466,34.56492 -6.74719,33.18024 12.97726,-0.45545 25.86659,4.13547 39.30883,5.25662 16.97213,-1.43096 31.15586,11.16049 12.00037,24.37633 -13.12796,14.69213 -32.62888,21.64675 -49.94505,30.51528 -4.57809,12.51555 6.35502,35.14863 17.72095,44.9519 13.66496,13.26664 16.30685,33.44012 35.24211,42.56341 3.65923,2.9003 4.7568,4.43946 6.10968,-0.28011 z M 155.67693,373.76342 c 22.26546,1.52986 -4.13041,-20.70912 -10.15384,-22.7579 -12.13495,-6.97309 -11.48551,26.51931 0.54335,18.98272 4.59242,-1.44291 6.1795,7.49011 9.61049,3.77518 z m 93.2225,-0.92527 c 12.56082,-16.44919 14.57556,-40.67548 0.51982,-56.93946 -13.07531,-16.34525 -19.29044,-38.39854 -7.74322,-57.54025 9.83619,-25.52425 30.00859,-47.84311 31.29089,-76.37639 -0.5779,-20.48592 -16.90203,-36.86612 -30.89409,-49.93544 -13.96719,-9.97349 -27.67675,-17.49696 -44.32445,-20.99167 -17.94609,-1.18015 -36.42804,-5.66756 -54.09745,1.28798 -14.4506,3.67085 -29.39348,3.98367 -42.96197,12.48944 -17.826009,7.5979 -21.828989,19.97005 -7.272769,33.49322 -2.69315,17.06864 2.10497,22.6395 14.855489,10.95678 20.31849,-6.78627 43.11313,-2.38054 61.96242,7.33769 13.45033,9.38069 25.84806,21.98424 30.76128,38.69981 11.71431,39.82511 -15.17338,80.36903 -1.71111,119.79724 7.41414,21.08846 30.54461,28.85568 48.63765,38.7398 l 0.97748,-1.01843 z M 188.5425,362.5115 c 18.58841,-1.13822 12.25417,-10.57846 4.15951,-17.1657 -0.0154,2.52141 -12.59885,22.05809 -4.15951,17.1657 z m -13.13868,0.46732 c 8.60124,-13.7227 14.13471,-29.44908 -6.10649,-16.36625 -21.24654,-0.58467 0.1092,15.44842 6.10649,16.36625 z M 61.744421,357.66539 c 6.89205,-15.9494 36.680285,-21.41558 12.35534,-35.06969 -11.61161,-16.7334 0.68373,-39.64188 -14.22645,-54.2624 -1.11425,-13.21826 -27.547743,-15.65403 -18.405497,-26.20264 10.978645,-0.87363 2.401464,-26.3469 18.477467,-30.71854 11.83356,-13.87464 30.63204,-26.53375 24.38249,-47.5299 -2.07171,-23.88872 -25.97431,-10.32826 -33.999906,2.23437 -15.980336,16.50075 -26.247421,37.44846 -31.822258,59.38939 -1.353707,26.66819 29.130255,37.45623 33.060602,62.03597 -0.4006,21.19995 -17.573003,41.5024 -9.566977,62.46531 2.491408,3.47938 19.168199,21.20383 19.745189,7.65813 z m 85.380339,-16.3926 c 14.00279,-2.04151 41.59049,-4.91516 39.29361,-22.76049 -3.04887,-14.54259 5.81671,-34.36126 1.9814,-45.20846 -11.02932,12.67017 -29.57536,15.30317 -45.13732,15.68404 -17.70784,-14.39512 -23.36647,20.21802 -45.127804,13.87219 -13.132125,-2.8981 -27.847485,-18.36768 -19.618165,7.0242 6.72095,18.3717 25.093019,21.95191 41.913989,20.94581 10.22093,2.91785 13.56134,14.02444 26.69429,10.44271 z m -18.87361,-10.41851 c -25.72158,-13.49108 18.75312,-13.27842 0,0 z m 141.28751,-4.79052 c -5.49619,-15.48975 -13.73561,-4.55916 0,0 z M 35.37441,312.94722 c 7.570503,-16.29162 10.564432,-38.03413 -9.387235,-17.41248 -23.0372413,11.10519 -1.212966,13.43464 9.387235,17.41248 z m 224.75358,-5.42396 c 2.91663,-8.47528 -25.5337,-32.79522 -10.16254,-7.40253 3.45891,2.19485 4.27518,11.58306 10.16254,7.40253 z M 100.31285,292.66443 c 14.97271,2.5434 21.47401,-13.35625 28.81132,-22.64305 11.71494,13.0904 31.34026,10.2402 45.65511,2.83303 18.42446,-9.46239 13.77614,-30.15765 7.97604,-45.73527 -5.15649,-17.909 -29.47189,-20.88502 -44.13941,-14.68052 -14.52073,6.61009 -14.48153,24.80505 -17.29459,37.50011 -8.25984,-8.29567 -18.68087,-31.62156 -38.392419,-23.4131 -16.57576,9.06213 -19.75419,35.38429 -6.70402,49.08354 6.79621,7.52495 12.63283,17.9229 24.087969,17.05526 z m 14.72354,-15.28983 c -20.962739,-12.23864 2.9296,-39.46247 7.39393,-10.65753 0.19572,3.68966 -1.37369,12.97129 -7.39393,10.65753 z m 47.47515,-13.81269 c -22.82193,-11.30718 8.91532,-39.0957 9.14449,-9.09284 0.21325,4.61073 -4.32814,10.06499 -9.14449,9.09284 z m 103.40021,26.48442 c 19.8799,-9.36644 42.49502,-17.63587 56.0433,-36.00992 -19.99588,-3.3806 -37.09327,-5.55875 -57.29745,-4.96264 -16.07082,-4.60762 -25.84519,29.62263 -7.6253,35.2682 2.49183,2.10316 6.23717,11.13709 8.87945,5.70436 z M 59.988641,247.75575 c 1.65155,-20.21541 18.97477,-36.04177 39.353695,-32.75507 10.646594,7.02618 18.017844,19.04942 22.533334,0.55767 10.41762,-14.88641 30.40946,-20.00136 47.02519,-13.11519 20.96928,10.96077 8.92851,-16.55265 -5.51432,-18.65317 -16.88662,-7.9815 -38.5371,-11.81011 -56.02758,-3.48372 -14.801379,10.46182 -27.107439,21.99226 -39.047829,36.00722 -11.0145,6.57844 -20.345601,24.06945 -8.32249,31.44226 z M 193.96653,223.98664 c -3.45034,-20.23766 -11.9934,-16.25256 -2.39056,0.2771 1.53088,5.93042 3.91037,6.38 2.39056,-0.2771 z M 93.774131,118.6968 c 11.089569,-10.23397 24.010499,-9.3945 36.898509,-14.0701 16.81754,-1.5414 33.06378,-9.509278 50.62944,-4.790838 25.61742,4.840858 -12.35859,-9.63412 -22.21179,-5.18963 -7.27893,-21.866921 -22.32155,13.393628 -35.00237,-6.18735 -2.81019,10.49443 -12.83437,13.196398 -18.04393,11.991688 2.65846,12.18774 -30.857739,8.45374 -12.269859,18.24623 z m -6.79798,-15.54424 c 12.783125,-1.72335 8.53187,-21.647588 25.223609,-13.900348 13.41009,-9.35337 17.1629,-22.674777 27.73301,-35.795946 16.26162,-16.071369 37.69227,-25.94022 59.5121,-33.103716 26.56564,-5.016381 -5.55754,-3.505311 -16.45405,-6.256726 -17.85887,1.614162 -37.20454,1.733171 -54.32296,9.247805 -17.55225,3.983832 -32.130279,16.57812 -43.198599,30.741205 -9.02584,13.837719 -15.59582,37.631888 -0.0806,49.786866 l 1.5875,-0.71917 z"
       id="path273" />
  </g>
</svg>
